# xmcd
#
# Track frame offsets: 
#        150
#        15596
#        41669
#        60762
#        84515
#        109219
#        136951
#        157499
#        176433
#        194849
#        217960
#        240906
#        266994
#        281971
#        300312
#        318450
#        341982
#
# Disc length: 4792 seconds
#
# Revision: 2
# Processed by: cddbd v1.5.2PL0 Copyright (c) Steve Scherf et al.
# Submitted via: ExactAudioCopy v1.3
#
DISCID=fb12b611
DTITLE=Various Artist - Akella Presents - Modern Electric Blues - vol.24  CD2
DTITLE=New!
DYEAR=2013
DGENRE=Blues
TTITLE0=BLUESBALL - She's On A Rol
TTITLE1=KAL DAVID - The Visit
TTITLE2=DEVON ALLMANS HONEYTRIBE - Could Get Dangerous
TTITLE3=DAVE HOLE - Yours For a Song
TTITLE4=The DUFFY BISHOP BAND - Pain
TTITLE5=JOHN CAMPBELL - World Of Trouble
TTITLE6=The BEAT DADDYS - Reasons
TTITLE7=COYOTE KINGS - Black Eyed Voodoo Child
TTITLE8=SCOTT ELLISON - Who Will Be The Fool
TTITLE9=DUKE ROBILLARD - This Dream (Still Coming True)
TTITLE10=TEXAS BLUES RUNNERS - Chains Of Love
TTITLE11=RICK FOWLER - Feel So Much Better
TTITLE12=TY CURTIS BAND - What He Don't Know
TTITLE13=SIR OLIVER MALLY - Voodoo Chile
TTITLE14=PEPE AHLQVIST H.A.R.P - Lock On The Door
TTITLE15=WALTER TROUT - Song For My Guitar
TTITLE16=Dr. HECTOR and The GROOVE INJECTORS - A Fool Like Me
EXTD=
EXTT0=
EXTT1=
EXTT2=
EXTT3=
EXTT4=
EXTT5=
EXTT6=
EXTT7=
EXTT8=
EXTT9=
EXTT10=
EXTT11=
EXTT12=
EXTT13=
EXTT14=
EXTT15=
EXTT16=
PLAYORDER=
